<?xml version="1.0" encoding="utf-8"?>
<!-- Generator: Adobe Illustrator 19.2.1, SVG Export Plug-In . SVG Version: 6.00 Build 0)  -->
<svg version="1.1" id="layer" xmlns="http://www.w3.org/2000/svg" xmlns:xlink="http://www.w3.org/1999/xlink" x="0px" y="0px"
	 viewBox="0 0 652 652" style="enable-background:new 0 0 652 652;" xml:space="preserve">
<style type="text/css">
	.st0{fill:#2E294E;}
	.st1{fill:none;stroke:#2E294E;stroke-width:6.8031;}
</style>
<path class="st0" d="M455.1,339.7c0.3-3.9,1.7-7.5,3-11.1c3.1-8.6,6.2-17.2,9.3-25.8c0.2-0.6,0.5-1.3,0.7-1.9c0.4-0.9,1-1.4,2.1-1.4
	c1.9,0,3.9,0,5.8,0c1.4,0,1.9,0.4,2.3,1.7c1.1,3.2,2.2,6.3,3.3,9.5c2.6,7.6,5.3,15.1,7.8,22.7c0.7,2.1,1,4.3,1.5,6.4
	c0.2-0.8,0.3-1.7,0.6-2.6c1-3.1,2-6.2,3-9.2c3.2-9.5,6.4-18.9,9.6-28.4c0.6-1.8,1.2-3.7,1.9-5.5c0.4-1.3,0.7-1.5,2-1.5
	c1.8,0,3.6,0,5.3,0c1.8,0,2.4,0.8,1.8,2.5c-1.4,4.3-2.9,8.6-4.4,12.9c-5.2,15.2-10.3,30.4-15.5,45.6c-0.1,0.3-0.2,0.6-0.3,0.9
	c-0.3,0.7-0.8,1.1-1.6,1.1c-1.4,0-2.8,0-4.2,0c-1.2,0-1.6-0.2-2-1.4c-0.6-1.7-1.2-3.4-1.8-5.2c-3.6-10.5-7.3-20.9-10.9-31.4
	c-0.4-1.3-0.9-2.6-1.6-3.9c-0.4,1-0.8,2-1.1,3c-4.4,12.4-8.9,24.7-13.3,37.1c-0.1,0.3-0.2,0.6-0.4,0.9c-0.2,0.5-0.6,0.8-1.3,0.8
	c-1.6,0-3.1,0-4.7,0c-0.9,0-1.3-0.6-1.5-1.3c-0.6-1.8-1.1-3.6-1.7-5.4c-3.9-11.4-7.7-22.8-11.6-34.2c-2.1-6.4-4.2-12.7-6.3-19.1
	c-0.1-0.2-0.2-0.5-0.2-0.7c-0.2-1.5,0.3-2.1,1.9-2.1c1.8,0,3.6,0,5.5,0c1.2,0,1.6,0.2,2,1.4c1.3,3.9,2.6,7.8,3.9,11.7
	c2.2,6.5,4.4,13,6.5,19.6c1.3,3.8,2.5,7.7,3.7,11.5C454.7,337.8,454.8,338.7,455.1,339.7z M270.7,305.9c0,0.5,0,0.9,0,1.4
	c0,15.2,0,30.5,0,45.7c0,0.4,0,0.7,0,1.1c-0.1,0.9-0.6,1.4-1.5,1.4c-2,0-3.9,0-5.9,0c-0.9,0-1.4-0.5-1.5-1.4c0-0.3,0-0.6,0-0.8
	c0-19.4,0-38.8,0-58.2c0-0.2,0-0.5,0-0.7c0.1-1.2,0.5-1.7,1.8-1.7c1.7,0,3.4,0,5.1,0c0.9,0,1.5,0.3,2.1,1c4.2,5.5,8.3,11,12.5,16.4
	c5.8,7.6,11.6,15.2,17.3,22.8c1.9,2.5,3.7,5.1,4.9,8.1c0.1,0.2,0.2,0.4,0.5,0.6c0-0.4,0-0.8,0-1.3c0-15,0-30.1,0-45.1
	c0-0.3,0-0.6,0-0.8c0.1-1.1,0.6-1.6,1.7-1.6c1.8,0,3.7,0,5.5,0c1.1,0,1.6,0.5,1.8,1.6c0,0.3,0,0.6,0,1c0,19.3,0,38.6,0,57.9
	c0,0.2,0,0.5,0,0.7c-0.1,1.3-0.5,1.7-1.8,1.7c-1.8,0-3.6,0-5.4,0c-0.7,0-1.2-0.3-1.6-0.8c-4.4-5.7-8.7-11.5-13.1-17.2
	c-5.6-7.3-11.1-14.5-16.7-21.8c-2.1-2.7-3.8-5.7-5-8.9c-0.1-0.3-0.2-0.6-0.4-0.9C270.8,305.9,270.8,305.9,270.7,305.9z M385,342.1
	c0.5-3.3,2-6.1,3.2-9.1c2.2-5.3,4.4-10.6,6.6-15.9c0.5-1.1,1.2-1.6,2.4-1.6c0.9,0.1,1.9,0.1,2.8,0c1.1-0.1,1.7,0.4,2.1,1.4
	c0.9,2.1,1.8,4.3,2.6,6.4c2,4.7,4,9.5,5.9,14.2c0.6,1.4,0.9,2.8,1.3,4.3c0,0,0.2-0.1,0.2-0.2c0.7-2.5,1.3-5.1,1.9-7.6
	c2-7.1,4-14.3,5.9-21.4c0.6-2.2,0.7-2.2,3-2.2c1.4,0,2.7,0,4.1,0c1.5,0,2.1,0.8,1.7,2.2c-1.1,3.7-2.2,7.5-3.2,11.2
	c-2.8,9.7-5.7,19.4-8.5,29.1c-0.9,3-0.9,2.6-3.6,2.6c-0.8,0-1.5,0-2.3,0c-1,0.1-1.5-0.4-1.8-1.2c-1.5-3.8-3.1-7.6-4.7-11.3
	c-1.9-4.7-3.9-9.3-5.8-14c-0.1-0.3-0.2-0.5-0.4-0.9c-1,2.4-1.9,4.7-2.9,7c-2.6,6.4-5.3,12.8-7.9,19.2c-0.4,0.9-0.9,1.4-1.9,1.3
	c-1.2-0.1-2.3,0-3.5,0c-1.3,0-1.7-0.3-2.1-1.6c-1-3.5-2.1-7-3.1-10.5c-3-10-5.9-20.1-8.9-30.1c-0.6-2-0.3-3.2,2.3-3
	c1.3,0.1,2.6,0,3.9,0c1.7,0,1.9,0.2,2.4,1.8c1.8,6.4,3.6,12.8,5.4,19.2c0.8,3,1.7,6,2.5,9C384.8,340.9,384.9,341.5,385,342.1z
	 M331.9,338.4c1.7,6.1,5.6,9.9,11.9,11.3c5.3,1.2,10.3,0.2,15.3-1.7c1.1-0.4,2.2-0.9,3.3-1.4c1-0.4,1.7,0,1.6,1.1
	c-0.1,1.5-0.3,3-0.4,4.6c-0.1,0.9-0.5,1.5-1.4,1.9c-3.3,1.7-6.9,2.7-10.6,3.1c-3.8,0.4-7.6,0.5-11.4-0.5
	c-9.2-2.4-14.9-8.1-16.8-17.1c-1.3-5.9-0.5-11.7,2.7-17c3.4-5.7,8.5-9.1,15.4-10.1c4.4-0.6,8.8-0.3,12.9,1.4
	c5.6,2.3,9.1,6.5,10.8,12c0.8,2.5,1,5.1,1,7.7c0,1.2-0.4,2.2-1.1,3.2c-0.7,1-1.6,1.4-2.9,1.4c-9.5,0-19.1,0-28.6,0
	C332.9,338.4,332.5,338.4,331.9,338.4z M332,337.6c0.1-0.3,0.2-0.5,0.2-0.8c0.4-1.5,0.7-3,1.2-4.4c0.5-1.4,0.8-1.5,2.4-1.5
	c6.6,0,13.2,0,19.7,0c0.4,0,0.9,0,1.4,0c0-0.4,0-0.7,0-0.9c-0.1-0.5-0.1-1.1-0.3-1.6c-0.9-3.7-3-6.4-6.8-7.8c-2.1-0.8-4.2-1-6.4-0.8
	c-4.4,0.4-7.8,2.4-9.9,6.1C331.3,329.5,331.1,333.5,332,337.6z M591.5,338.3c0.4,1.1,0.6,2.1,1.1,3c2.2,4.6,5.9,7.3,11,8.3
	c5,1,9.9,0.2,14.6-1.6c1.2-0.5,2.4-1,3.6-1.5c1.2-0.5,1.8-0.1,1.7,1.2c-0.1,1.6-0.3,3.3-0.5,4.9c-0.1,0.8-0.7,1.1-1.3,1.5
	c-2.2,1.1-4.5,2-6.9,2.5c-5.1,1.1-10.3,1.4-15.4,0c-8.5-2.2-14-7.5-16.3-15.6c-1.9-7-1-13.7,3.3-19.8c3.4-4.9,8.3-7.7,14.4-8.6
	c4.5-0.6,8.9-0.3,13,1.5c5.7,2.4,9.2,6.7,10.8,12.4c0.7,2.5,0.9,5,0.8,7.6c0,1.2-0.5,2.2-1.3,3.1c-0.7,0.8-1.6,1.1-2.7,1.1
	c-9.5,0-19,0-28.5,0C592.6,338.3,592.2,338.3,591.5,338.3z M616.7,330.8c-0.2-1.1-0.3-2-0.6-3c-1-3.4-3-5.9-6.5-7.3
	c-2-0.8-4-1-6.2-0.8c-5.1,0.4-8.9,2.7-11,7.3c-1.5,3.2-1.6,6.6-1.2,10c0,0.3,0.2,0.6,0.2,0.7c0.5-1.8,1.1-3.7,1.7-5.7
	c0.3-0.9,0.9-1.3,2-1.3c6.7,0.1,13.3,0,20,0C615.6,330.8,616.1,330.8,616.7,330.8z M547.6,317.1c3.1-3.9,6.9-5.8,11.5-6.4
	c2.7-0.4,5.4-0.5,8,0.2c4.6,1.2,7.5,4.2,8.6,8.9c0.4,1.7,0.7,3.6,0.7,5.3c0.1,9.4,0,18.8,0,28.2c0,0.3,0,0.6,0,0.8
	c-0.1,0.9-0.5,1.4-1.5,1.4c-1.9,0-3.9,0-5.8,0c-0.8,0-1.2-0.5-1.4-1.2c-0.1-0.4,0-0.7,0-1.1c0-8.9,0-17.8,0-26.7
	c0-1.3-0.2-2.7-0.6-3.9c-0.9-2.6-3.1-4.1-6.2-4.3c-2.9-0.1-5.6,0.8-8.1,2.3c-1.5,1-2.9,2.2-4.4,3.3c-0.7,0.5-0.9,1.2-0.9,2.1
	c0,9,0,18.1,0,27.1c0,0.2,0,0.5,0,0.7c0,1-0.5,1.5-1.4,1.5c-1.9,0-3.8,0-5.7,0c-1,0-1.4-0.5-1.4-1.5c0-13.9,0-27.7,0-41.6
	c0-1.1,0.4-1.5,1.5-1.5c1.9,0,3.7,0,5.6,0c1,0,1.4,0.5,1.5,1.5C547.6,313.9,547.6,315.4,547.6,317.1z M519.4,333
	c0-6.8,0-13.6,0-20.4c0-0.2,0-0.5,0-0.7c0-1,0.4-1.4,1.2-1.5c1.8,0,3.6,0,5.3,0c0.7,0,1.1,0.5,1.3,1.2c0,0.3,0,0.6,0,1
	c0,13.6,0,27.2,0,40.8c0,0.3,0,0.7,0,1c-0.1,0.7-0.5,1.2-1.2,1.2c-1.9,0-3.7,0-5.6,0c-0.7,0-1-0.5-1.1-1.2c0-0.3,0-0.6,0-0.8
	C519.4,346.6,519.4,339.8,519.4,333z M529.2,298.6c0,3.2-2.8,6-6,5.9c-3.7-0.2-5.8-3-5.8-5.9c0-3.3,2.7-5.9,6-5.8
	C526.6,292.7,529.2,295.4,529.2,298.6z"/>
<path class="st0" d="M132.5,339.4c0.2-3.2,1.4-6.1,2.4-9c2.4-7,4.9-13.9,7.4-20.9c0.2-0.5,0.4-1,0.6-1.6c0.3-0.8,0.8-1.2,1.6-1.2
	c1.5,0,3.1,0,4.6,0c1.1,0,1.5,0.3,1.8,1.4c0.9,2.6,1.7,5.1,2.6,7.7c2.1,6.1,4.2,12.2,6.2,18.4c0.6,1.7,0.8,3.5,1.2,5.2
	c0.1-0.6,0.3-1.4,0.5-2.1c0.8-2.5,1.5-5,2.4-7.5c2.5-7.7,5.1-15.3,7.6-23c0.5-1.5,1-3,1.5-4.5c0.3-1,0.6-1.2,1.6-1.2
	c1.4,0,2.8,0,4.2,0c1.4,0,1.9,0.6,1.5,2c-1.1,3.5-2.3,6.9-3.4,10.4c-4.1,12.3-8.1,24.6-12.2,36.9c-0.1,0.2-0.2,0.5-0.2,0.7
	c-0.2,0.6-0.6,0.9-1.3,0.9c-1.1,0-2.2,0-3.3,0c-1,0-1.3-0.2-1.6-1.1c-0.5-1.4-0.9-2.8-1.4-4.2c-2.9-8.5-5.7-16.9-8.6-25.4
	c-0.4-1-0.7-2.1-1.3-3.1c-0.3,0.8-0.6,1.6-0.9,2.4c-3.5,10-7,20-10.5,30.1c-0.1,0.2-0.2,0.5-0.3,0.7c-0.2,0.4-0.5,0.7-1,0.7
	c-1.2,0-2.5,0-3.7,0c-0.7,0-1-0.5-1.2-1.1c-0.4-1.5-0.9-2.9-1.4-4.4c-3-9.2-6.1-18.5-9.1-27.7c-1.7-5.2-3.3-10.3-5-15.5
	c-0.1-0.2-0.1-0.4-0.2-0.6c-0.2-1.2,0.2-1.7,1.5-1.7c1.4,0,2.9,0,4.3,0c1,0,1.2,0.2,1.6,1.1c1,3.2,2.1,6.3,3.1,9.5
	c1.7,5.3,3.4,10.6,5.1,15.8c1,3.1,2,6.2,2.9,9.3C132.2,337.9,132.3,338.6,132.5,339.4z M64.7,312.1c0,0.4,0,0.7,0,1.1
	c0,12.4,0,24.7,0,37.1c0,0.3,0,0.6,0,0.9c-0.1,0.7-0.5,1.1-1.2,1.1c-1.5,0-3.1,0-4.6,0c-0.7,0-1.1-0.4-1.2-1.1c0-0.2,0-0.5,0-0.7
	c0-15.7,0-31.5,0-47.2c0-0.2,0-0.4,0-0.6c0.1-1,0.4-1.3,1.4-1.4c1.3,0,2.7,0,4,0c0.7,0,1.2,0.3,1.6,0.8c3.3,4.4,6.6,8.9,9.9,13.3
	c4.6,6.2,9.2,12.3,13.7,18.5c1.5,2,2.9,4.1,3.8,6.5c0.1,0.2,0.2,0.3,0.4,0.5c0-0.3,0-0.7,0-1c0-12.2,0-24.4,0-36.6
	c0-0.2,0-0.5,0-0.7c0-0.9,0.4-1.3,1.3-1.3c1.4,0,2.9,0,4.3,0c0.9,0,1.3,0.4,1.4,1.3c0,0.3,0,0.5,0,0.8c0,15.6,0,31.3,0,46.9
	c0,0.2,0,0.4,0,0.6c-0.1,1-0.4,1.4-1.4,1.4c-1.4,0-2.8,0-4.2,0c-0.6,0-1-0.2-1.3-0.7c-3.4-4.6-6.9-9.3-10.3-13.9
	c-4.4-5.9-8.8-11.8-13.2-17.7c-1.7-2.2-3-4.6-4-7.2c-0.1-0.2-0.2-0.5-0.3-0.7C64.8,312.1,64.8,312.1,64.7,312.1z"/>
<circle id="Oval" class="st1" cx="118.3" cy="325.5" r="92.7"/>
</svg>
