<?xml version="1.0" encoding="UTF-8"?>
<svg width="123px" height="23px" viewBox="0 0 123 23" version="1.1" xmlns="http://www.w3.org/2000/svg" xmlns:xlink="http://www.w3.org/1999/xlink">
    <title>NewWineTextLogo</title>
    <g id="Symbols" stroke="none" stroke-width="1" fill="none" fill-rule="evenodd">
	<g id="Footer" transform="translate(-106.000000, -222.000000)" fill="#2E294E" fill-rule="nonzero">
	    <g id="NewWineTextLogo" transform="translate(106.000000, 222.000000)">
		<path d="M65.3503944,16.2917532 C65.4492948,14.9698781 65.9286871,13.7595041 66.3659968,12.5421612 C67.4100705,9.63616328 68.4707524,6.73578929 69.5250658,3.83333689 C69.6043609,3.61498053 69.6861536,3.39747998 69.7689452,3.18034622 C69.8890743,2.86503768 70.1139728,2.69558532 70.4661182,2.69680792 C71.1230817,2.6990086 71.7800452,2.69485176 72.4368838,2.69827504 C72.8995429,2.70072024 73.064252,2.82175764 73.2245906,3.27864326 C73.6002124,4.34866279 73.9732118,5.41953813 74.3449624,6.49090251 C75.2319443,9.04674782 76.1349101,11.5974582 76.9926713,14.1625953 C77.2289334,14.8690136 77.3288328,15.6189564 77.4880475,16.3341774 C77.5498603,16.0703403 77.6013085,15.7637122 77.6940901,15.4696769 C78.0227591,14.428144 78.3559236,13.3877114 78.7046974,12.352536 C79.7823623,9.15445888 80.868144,5.95882699 81.9506789,2.76233928 C82.1609672,2.14125848 82.3687579,1.5191996 82.5819183,0.899096878 C82.7296445,0.469230717 82.8261723,0.400398336 83.2708496,0.398808956 C83.8718694,0.396774194 84.4728892,0.396486016 85.073909,0.398808956 C85.6861675,0.401131896 85.8894628,0.664113157 85.6982803,1.23408928 C85.2120199,2.68482644 84.7151453,4.13214033 84.2237651,5.58116585 C82.481894,10.7176752 80.7405225,15.8544292 78.9989012,20.9910608 C78.9638115,21.094615 78.9324681,21.1996364 78.8936322,21.3018457 C78.8018496,21.5442873 78.6400126,21.6765726 78.3572972,21.6696038 C77.8824004,21.6578669 77.4068793,21.6681367 76.9317327,21.6660583 C76.5122801,21.6642244 76.3924008,21.5845109 76.2545396,21.1973134 C76.0483722,20.6179233 75.8498221,20.0359657 75.6481502,19.4549862 C74.4195124,15.9183711 73.1912492,12.3815116 71.9618621,8.84514108 C71.8106393,8.41026226 71.6531729,7.97758412 71.4260266,7.53378032 C71.29853,7.86999532 71.1657887,8.20449868 71.0444109,8.5427921 C69.5455452,12.723106 68.0485525,16.903909 66.5505609,21.0844675 C66.513723,21.1872881 66.4767603,21.2905978 66.4310563,21.3897507 C66.3495134,21.5664164 66.2142746,21.6676477 66.0071082,21.6667918 C65.4760179,21.6648357 64.9448028,21.665447 64.4137126,21.6664251 C64.1024011,21.6670364 63.9810233,21.4679971 63.901853,21.2144298 C63.7106705,20.601785 63.5246079,19.9873062 63.3193146,19.3790627 C62.0176253,15.5220042 60.7064456,11.66788 59.4083777,7.80959888 C58.685106,5.66002355 57.9810649,3.50421296 57.2685324,1.3510921 C57.2428083,1.27357926 57.2089674,1.19692224 57.1962302,1.11720872 C57.1160609,0.615453677 57.3024982,0.401498676 57.8247223,0.398931216 C58.4397281,0.395874716 59.0547338,0.396241496 59.6697395,0.398931216 C60.0874439,0.400765116 60.1992064,0.473998857 60.3358188,0.876601038 C60.7837428,2.19578644 61.2261723,3.51680574 61.6672282,4.83819183 C62.4023629,7.04095025 63.1394957,9.24309738 63.8667634,11.448301 C64.2944577,12.7452351 64.7091651,14.046326 65.1197517,15.3485173 C65.2170287,15.6567347 65.2745958,15.9770559 65.3503944,16.2917532 Z" id="Path"></path>
		<path d="M3.02144717,4.89033459 C3.02144717,5.04635624 3.02144717,5.2023779 3.02144717,5.35852172 C3.02144717,10.5131008 3.02144717,15.6675576 3.02132426,20.8221367 C3.02132426,20.9451702 3.03152611,21.0696698 3.01567022,21.1908707 C2.97609194,21.4946059 2.80499578,21.6582026 2.49820266,21.6622344 C1.83803205,21.6707869 1.17773853,21.6712756 0.517567918,21.6623566 C0.200081289,21.6580804 0.0426285708,21.50157 0.00600022571,21.1895267 C-0.00506202617,21.0950829 0.00255863624,20.9983177 0.00255863624,20.9026521 C0.00243572233,14.339602 0.00243572233,7.77679622 0.00243572233,1.21399045 C0.00243572233,1.13200883 -0.00235792015,1.0495385 0.00366486143,0.967923411 C0.0335329415,0.559359275 0.188650296,0.407002973 0.601026463,0.402726733 C1.17872184,0.396774194 1.75666304,0.411157034 2.33398968,0.397106533 C2.63893909,0.389775837 2.84383657,0.503645984 3.02710121,0.746047672 C4.43028641,2.60181342 5.84502551,4.4489045 7.25447931,6.29978312 C9.21114584,8.86931432 11.1718685,11.4356689 13.1188249,14.0122864 C13.7620333,14.8633802 14.3675073,15.7424529 14.7624297,16.7439482 C14.7910686,16.8163999 14.833351,16.8835979 14.9298384,16.937112 C14.9298384,16.7935526 14.9298384,16.6498709 14.9298384,16.5063114 C14.9298384,11.4201522 14.9298384,6.33399303 14.9298384,1.24783383 C14.9298384,1.15216824 14.9256593,1.0562583 14.9306988,0.960714893 C14.9506109,0.583184038 15.1169134,0.40859129 15.4927841,0.403459803 C16.1116556,0.395029502 16.730773,0.396774194 17.3496445,0.402848911 C17.7304318,0.40651426 17.9034946,0.565468189 17.9447937,0.935546169 C17.9568393,1.04367394 17.948604,1.15412309 17.948604,1.26347265 C17.9487269,7.78522653 17.948604,14.3071026 17.948604,20.8288565 C17.948604,20.9108381 17.9532748,20.9931862 17.9478665,21.0749235 C17.9192276,21.5128104 17.7695185,21.6611348 17.3357553,21.6645558 C16.7305272,21.6691986 16.1251762,21.6574695 15.5201939,21.6698658 C15.2717849,21.6746966 15.1086781,21.5741439 14.9652376,21.3853785 C13.4914998,19.4459206 12.0151809,17.5084176 10.5370182,15.5721364 C8.66036861,13.1137874 6.78507109,10.654461 4.90166125,8.20124353 C4.18863766,7.27244433 3.60651738,6.27473657 3.19524744,5.17953056 C3.15800453,5.08044398 3.11596797,4.9830679 3.07614386,4.88483657 C3.0579526,4.88666925 3.03976135,4.88850192 3.02144717,4.89033459 Z" id="Path"></path>
		<path d="M41.6801666,17.097321 C41.8339869,15.9899114 42.3455006,15.0286754 42.7520259,14.0340563 C43.4869453,12.2360345 44.2464028,10.4480766 44.9790027,8.64907293 C45.1372179,8.26050384 45.3775927,8.09174752 45.7902219,8.11960765 C46.10299,8.14071753 46.4191762,8.13814016 46.7324326,8.11997585 C47.1012352,8.09874324 47.3182928,8.26590404 47.4525804,8.59899833 C47.7441066,9.32213449 48.0475966,10.0402386 48.3463255,10.7604292 C49.0117816,12.3647802 49.6878587,13.9647128 50.3362236,15.5760595 C50.5230055,16.0403542 50.6300693,16.53705 50.7750999,17.0234364 C50.7868196,17.0137406 50.8322332,16.9953308 50.8394359,16.9671025 C51.0601559,16.1069976 51.2629302,15.2418607 51.4975673,14.3855604 C52.1589948,11.9722837 52.833851,9.56281168 53.5019929,7.15149868 C53.7052555,6.41768485 53.7356534,6.39289301 54.5187943,6.39277028 C54.9833073,6.39277028 55.4479424,6.38724734 55.9123334,6.39436579 C56.4118833,6.4020979 56.6087977,6.65283911 56.4703594,7.14413477 C56.1143752,8.40753661 55.7430089,9.66639738 55.375305,10.9264855 C54.4178344,14.2077219 53.4574338,17.4880993 52.5019165,20.7699494 C52.2073383,21.7816282 52.1989148,21.6617192 51.2980891,21.6640511 C51.0385478,21.6646647 50.7780299,21.650796 50.5195873,21.6674876 C50.1979074,21.6882293 50.01491,21.5431602 49.8966148,21.2513038 C49.3776543,19.9710877 48.8501481,18.6944308 48.3233745,17.4174057 C47.6713471,15.8368647 47.0172444,14.2573056 46.3630196,12.6777465 C46.3274944,12.5920796 46.2822029,12.5104629 46.2177448,12.3784035 C45.8812933,13.1924839 45.5621771,13.9620127 45.2451363,14.7324007 C44.3549316,16.8946907 43.4624073,19.0559989 42.5796494,21.2213572 C42.4553723,21.5263459 42.2798218,21.6858974 41.9366559,21.6685922 C41.5414841,21.6487096 41.1444811,21.6661375 40.7482106,21.6633147 C40.3015212,21.6602464 40.1844468,21.5702839 40.0535774,21.1290629 C39.7036972,19.9493642 39.355404,18.7690518 39.0071108,17.5888622 C38.0043486,14.1918895 37.010132,10.7923395 35.9924761,7.39990798 C35.7890914,6.72181441 35.8861447,6.32097214 36.7580375,6.38687915 C37.1927631,6.41977129 37.6320057,6.39142023 38.0691729,6.39264755 C38.636477,6.39412033 38.7196132,6.45904549 38.8717244,6.9990657 C39.4798031,9.15755106 40.0895909,11.3155455 40.6969372,13.4741536 C40.9821152,14.4877961 41.2642413,15.5024204 41.5446582,16.517413 C41.5976408,16.7086292 41.6354854,16.9038956 41.6801666,17.097321 Z" id="Path"></path>
		<path d="M23.7162799,15.8494116 C24.2747313,17.9241872 25.6092998,19.1958891 27.7331545,19.6709351 C29.5147326,20.0695601 31.2293461,19.7465241 32.8920281,19.0940341 C33.2638735,18.9480855 33.6236678,18.7744447 33.9935254,18.6235044 C34.3452442,18.4800517 34.5724761,18.6340821 34.5422862,18.9925356 C34.498927,19.5079909 34.4472438,20.0228518 34.3991636,20.5379505 C34.37121,20.8374541 34.2288328,21.0454427 33.9377423,21.1931741 C32.8085399,21.766153 31.6116276,22.1090371 30.3422843,22.2425064 C29.0499569,22.3784715 27.7601142,22.3976064 26.4993434,22.0651812 C23.387421,21.2447552 21.4690565,19.3117685 20.8115871,16.2898721 C20.3756347,14.2861692 20.6385231,12.3481907 21.7092092,10.553546 C22.8607746,8.62341162 24.5963844,7.47281858 26.9017514,7.14407771 C28.3990721,6.93050311 29.8671968,7.04626364 31.2661207,7.6340989 C33.1551649,8.42790232 34.3278508,9.82344652 34.9058076,11.6948687 C35.1670809,12.5410852 35.2561598,13.4109531 35.2347908,14.2924683 C35.2251002,14.6906179 35.096265,15.0489526 34.8592182,15.3705624 C34.6213018,15.6932419 34.3139361,15.85785 33.8741323,15.8561861 C30.6486561,15.8438257 27.4231798,15.8495305 24.1977036,15.8495305 C24.048866,15.8494116 23.8999042,15.8494116 23.7162799,15.8494116 Z M23.7303188,15.5848501 C23.757527,15.4919089 23.7862261,15.3993243 23.8119434,15.3060265 C23.9488541,14.8075669 24.0570657,14.2999558 24.2292601,13.8130248 C24.3973546,13.3375034 24.5065601,13.294836 25.0260007,13.294836 C27.2496188,13.2947171 29.4732369,13.2947171 31.6968551,13.2947171 C31.8461896,13.2947171 31.9955241,13.2947171 32.1625004,13.2947171 C32.1625004,13.1648134 32.1720668,13.0735361 32.1605126,12.9847547 C32.1365346,12.8008927 32.1129293,12.6157234 32.0690732,12.4355459 C31.7658074,11.1895158 31.0407523,10.2721077 29.7699181,9.80502467 C29.0726925,9.54878269 28.3380711,9.47699691 27.5992256,9.5494958 C26.1233981,9.69425588 24.9633846,10.3517376 24.2370871,11.6062061 C23.5161319,12.8512854 23.4448191,14.1963181 23.7303188,15.5848501 Z" id="Shape"></path>
		<path d="M111.479781,15.8421188 C111.612505,16.2155634 111.698998,16.5476857 111.844646,16.8540409 C112.581212,18.4036282 113.855755,19.3175878 115.579917,19.6744085 C117.282828,20.0268357 118.91565,19.744704 120.506094,19.1412555 C120.918059,18.9849906 121.317969,18.7997526 121.725584,18.6325634 C122.138543,18.4632368 122.334025,18.5862539 122.304572,19.0228694 C122.26729,19.577871 122.203662,20.1314477 122.144508,20.6850244 C122.117293,20.9394892 121.921687,21.0696308 121.708683,21.1806549 C120.973982,21.5635989 120.198271,21.8460869 119.382419,22.0202818 C117.652664,22.3898079 115.909116,22.4831394 114.188806,22.0287125 C111.318972,21.2705428 109.453387,19.500926 108.693831,16.7436105 C108.040032,14.370189 108.372213,12.1058917 109.811666,10.0492746 C110.967031,8.39840014 112.608428,7.42934405 114.67173,7.14151266 C116.184753,6.93050756 117.669193,7.04913114 119.075465,7.6458113 C121.007039,8.46525207 122.170606,9.91948929 122.727597,11.8402651 C122.970675,12.6785859 123.02436,13.5379241 122.991055,14.4037931 C122.975646,14.8035985 122.812724,15.1525822 122.559828,15.4610747 C122.331415,15.7396442 122.026325,15.8479372 121.647417,15.8468685 C118.435087,15.8384378 115.222632,15.8421188 112.010178,15.8421188 C111.859559,15.8421188 111.70894,15.8421188 111.479781,15.8421188 Z M119.99931,13.2897526 C119.929841,12.92462 119.891814,12.5990285 119.804077,12.2861425 C119.480222,11.1308985 118.783921,10.2746476 117.592765,9.82449543 C116.921194,9.57074309 116.223526,9.49059202 115.510945,9.54331361 C113.770503,9.67203029 112.501677,10.4717598 111.796428,12.0133914 C111.300082,13.09834 111.262179,14.2443221 111.40472,15.402416 C111.417272,15.5041782 111.46723,15.6017844 111.474934,15.6255328 C111.652645,15.0249342 111.839675,14.366508 112.044104,13.7129502 C112.143398,13.3956708 112.36448,13.2775222 112.73531,13.2804907 C114.985644,13.2986583 117.23635,13.2895151 119.486808,13.2896339 C119.636308,13.2897526 119.785809,13.2897526 119.99931,13.2897526 Z" id="Shape"></path>
		<path d="M96.6456326,8.64928457 C97.6834956,7.32208667 98.9838219,6.67791961 100.517475,6.4736419 C101.425486,6.3526784 102.332057,6.31927984 103.230835,6.55379843 C104.793265,6.96150372 105.758108,7.98313519 106.141192,9.54740211 C106.284713,10.1335164 106.36109,10.7512075 106.365287,11.3552963 C106.386749,14.5362963 106.375358,17.7174176 106.375358,20.898539 C106.375358,20.9937553 106.382433,21.0895788 106.3732,21.1838234 C106.343225,21.4933977 106.188673,21.6565041 105.882326,21.6612406 C105.224788,21.6713209 104.567012,21.6708351 103.909594,21.6619693 C103.64845,21.6584473 103.487663,21.507 103.44234,21.2455197 C103.421717,21.1264994 103.43095,21.0017709 103.43095,20.8795929 C103.43047,17.8753017 103.427592,14.8708891 103.433468,11.8665978 C103.434427,11.4131062 103.381431,10.9705449 103.238149,10.5449866 C102.944152,9.67164474 102.189735,9.15111306 101.151632,9.10423363 C100.155135,9.05929739 99.2414891,9.3601273 98.414532,9.89523289 C97.8978786,10.2295828 97.4325428,10.6451823 96.9435866,11.0236183 C96.7144558,11.2010557 96.6361604,11.4205146 96.6374793,11.7245022 C96.6506684,14.7832027 96.6455127,17.8419032 96.6455127,20.9007251 C96.6455127,20.982339 96.6483903,21.063953 96.6450331,21.1454454 C96.6314843,21.48186 96.480409,21.656747 96.1572758,21.6618479 C95.5132876,21.672171 94.8688198,21.6728997 94.2247116,21.6618479 C93.8833535,21.6560183 93.7482251,21.5072429 93.7479853,21.1483602 C93.7453475,16.4582314 93.7452276,11.7682239 93.7478654,7.07809504 C93.7481052,6.70172367 93.8859913,6.56120684 94.2580441,6.55610597 C94.8887233,6.54760452 95.5197623,6.54699727 96.1503216,6.55671322 C96.4758528,6.56169264 96.6377191,6.73354339 96.6432346,7.0674075 C96.6517475,7.56814295 96.6456326,8.06899984 96.6456326,8.64928457 Z" id="Path"></path>
		<path d="M87.0989756,14.0205316 C87.0989756,11.7222549 87.0989756,9.42397817 87.0989756,7.12557922 C87.0989756,7.0435503 87.0965601,6.96127688 87.0995245,6.87937021 C87.1116017,6.53939641 87.222053,6.39355364 87.5168459,6.38805245 C88.1187286,6.37680556 88.7209406,6.3776613 89.3228232,6.3871967 C89.563708,6.39098642 89.71083,6.54832057 89.7480497,6.80919943 C89.7633108,6.91616709 89.7538687,7.02753571 89.7538687,7.13694835 C89.7540883,11.7335018 89.7540883,16.3301774 89.7538687,20.9267308 C89.7538687,21.0361434 89.7629815,21.1476343 89.7471713,21.2543575 C89.711379,21.4946985 89.5649157,21.6577784 89.3496126,21.6613236 C88.7231364,21.6715925 88.0963309,21.6739152 87.4699645,21.6609569 C87.2369848,21.6561892 87.118848,21.5004442 87.1007322,21.2434773 C87.0940349,21.1482456 87.0991952,21.0520358 87.0991952,20.956315 C87.0989756,18.6444687 87.0989756,16.3325001 87.0989756,14.0205316 Z" id="Path"></path>
		<path d="M90.4215809,2.4002543 C90.4146131,3.49648009 89.4715136,4.44119897 88.39517,4.38291769 C87.1368075,4.31486176 86.4362368,3.37955097 86.4324324,2.37435151 C86.4281688,1.25295602 87.3480423,0.382890951 88.4591027,0.396941995 C89.5396026,0.41062649 90.4285487,1.31807956 90.4215809,2.4002543 Z" id="Path"></path>
	    </g>
	</g>
    </g>
</svg>